<svg xmlns="http://www.w3.org/2000/svg" width="68" height="44" viewBox="0 0 68 44"><defs><style>.a{fill:#9b9b9b;}</style></defs><g transform="translate(0 -9.939)"><g transform="translate(0 9.939)"><path class="a" d="M66.249,9.939H1.751A1.748,1.748,0,0,0,0,11.687v40.5a1.749,1.749,0,0,0,1.751,1.749h64.5A1.748,1.748,0,0,0,68,52.191v-40.5A1.748,1.748,0,0,0,66.249,9.939Zm-49.522,20.1-.2-.458v.025a1.066,1.066,0,0,1-1.067,1.065H12.318a1.067,1.067,0,0,1-.987-.66l-.321-.779H9.22l-.326.784a1.065,1.065,0,0,1-.982.656H6.233a1.064,1.064,0,0,1-.98-1.485L8.017,22.74A1.068,1.068,0,0,1,9,22.095h2.292a1.069,1.069,0,0,1,.981.644l.579,1.349v-.927A1.066,1.066,0,0,1,13.918,22.1H16.44a1.073,1.073,0,0,1,.969.619l1.01,2.19.917-2.159a1.065,1.065,0,0,1,.98-.65h2.574a1.046,1.046,0,0,1,.575.191,1.04,1.04,0,0,1,.575-.191H29.2a1.03,1.03,0,0,1,.535.165,1.041,1.041,0,0,1,.536-.165h3.552a4.544,4.544,0,0,1,2.4.451c.073.044.126.1.193.149a1.062,1.062,0,0,1,.95-.6h1.576A1.052,1.052,0,0,1,39.98,23a4.252,4.252,0,0,1,2.9-.905h1.494a1.058,1.058,0,0,1,.637.212,1.062,1.062,0,0,1,.638-.212h2.313a1.07,1.07,0,0,1,.98.646l.567,1.325v-.905A1.067,1.067,0,0,1,50.576,22.1h2.351a1.064,1.064,0,0,1,.913.514l.734,1.215V23.16a1.068,1.068,0,0,1,1.069-1.065h1.58A1.066,1.066,0,0,1,58.29,23.16v6.452a1.067,1.067,0,0,1-1.067,1.065H55.037a1.068,1.068,0,0,1-.916-.514l-.948-1.569v1.018a1.067,1.067,0,0,1-1.067,1.065H48.963a1.071,1.071,0,0,1-.985-.655l-.326-.784H45.872l-.315.773a1.062,1.062,0,0,1-.985.667H42.764a4.489,4.489,0,0,1-2.8-.858,1.052,1.052,0,0,1-1.026.858H37.365a1.055,1.055,0,0,1-.483-.129,1.029,1.029,0,0,1-.479.129H34.845a1.067,1.067,0,0,1-1.068-1.057l-.006-.814,0-.142c0-.087,0-.216,0-.326-.071,0-.166-.008-.3-.008H32.88v1.281a1.066,1.066,0,0,1-1.067,1.065H30.268a1.045,1.045,0,0,1-.536-.165,1.03,1.03,0,0,1-.535.165H24.04a1.049,1.049,0,0,1-.575-.191,1.055,1.055,0,0,1-.575.191H21.305a1.065,1.065,0,0,1-1.067-1.064v-.026l-.2.457a1.065,1.065,0,0,1-.975.635H17.7A1.065,1.065,0,0,1,16.728,30.043ZM59.345,41.78H56.337a1.069,1.069,0,0,1-.981-.648,3.945,3.945,0,0,1-2.321.648H50.027a1.053,1.053,0,0,1-.464-.115,1.048,1.048,0,0,1-.462.115H43.948a1.022,1.022,0,0,1-.472-.12,1.05,1.05,0,0,1-.47.12h-1.55a1.066,1.066,0,0,1-1.068-1.065v-.938c0-.091,0-.231,0-.345-.071,0-.171-.01-.313-.01h-.583v1.292a1.066,1.066,0,0,1-1.067,1.065H36.87A1.066,1.066,0,0,1,35.8,40.715v-1.64a4.521,4.521,0,0,1-2.347.54H32.6v1.1a1.066,1.066,0,0,1-1.068,1.065h-3a1.07,1.07,0,0,1-.8-.357l-1.118-1.257L25.433,41.44a1.069,1.069,0,0,1-.783.343H18.533a1.067,1.067,0,0,1-1.067-1.066V34.264A1.066,1.066,0,0,1,18.533,33.2h6.21a1.058,1.058,0,0,1,.793.353L26.658,34.8l1.169-1.26a1.067,1.067,0,0,1,.783-.34h4.934a4.26,4.26,0,0,1,2.383.593,1.055,1.055,0,0,1,.944-.593h3.566a4.815,4.815,0,0,1,2.361.429c.081.047.132.108.207.159a1.054,1.054,0,0,1,.94-.588H49.1a1.058,1.058,0,0,1,.92.555A3.563,3.563,0,0,1,52.05,33.2h3.094a1.059,1.059,0,0,1,1,.712,3.415,3.415,0,0,1,2.218-.712h3.1a1.066,1.066,0,0,1,1.066,1.066v1.373a1.063,1.063,0,0,1-.488.9c.008.01.02.02.031.031a2.834,2.834,0,0,1,.771,2.116C62.835,40.621,61.531,41.782,59.345,41.78Z" transform="translate(0 -9.939)"/></g><g transform="translate(30.268 23.157)"><path class="a" d="M30.254,24.4a1.816,1.816,0,0,0,1.088-1.722,1.511,1.511,0,0,0-.78-1.432,3.642,3.642,0,0,0-1.871-.309H25.14V27.4h1.546V25.051h1.655a1.514,1.514,0,0,1,1.126.276,1.94,1.94,0,0,1,.243,1.258l.007.815h1.558V26.13a1.849,1.849,0,0,0-.256-1.185A1.785,1.785,0,0,0,30.254,24.4Zm-.929-.814a1.44,1.44,0,0,1-.765.132H26.683V22.285h1.9a1.6,1.6,0,0,1,.732.117.591.591,0,0,1,.324.571A.664.664,0,0,1,29.325,23.587Z" transform="translate(-25.14 -20.938)"/></g><g transform="translate(37.371 23.158)"><rect class="a" width="1.576" height="6.462"/></g><g transform="translate(39.697 23.158)"><path class="a" d="M48.919,20.939v4.5l-2.716-4.5H43.851V27.05l-2.615-6.111H38.923L36.742,26.02h-.692a1.49,1.49,0,0,1-1.076-.333,2.22,2.22,0,0,1-.425-1.516,2.129,2.129,0,0,1,.443-1.464,1.486,1.486,0,0,1,1.19-.383h1.463V20.939H36.149a3.132,3.132,0,0,0-2.345.752,3.446,3.446,0,0,0-.832,2.527,3.25,3.25,0,0,0,.828,2.467,3.252,3.252,0,0,0,2.239.715h1.808l.58-1.441h3.207l.6,1.441h3.144v-4.85l2.93,4.85H50.5V20.939h-1.58Zm-9.938,3.672,1.061-2.575,1.07,2.575Z" transform="translate(-32.972 -20.939)"/></g><g transform="translate(42.341 25.607)"><path class="a" d="M35.736,22.974c-.364,0-.4.037-.445.079a1.568,1.568,0,0,0-.123.7,1.641,1.641,0,0,0,.123.752,1.223,1.223,0,0,0,.3.031l.669-1.564Z" transform="translate(-35.168 -22.974)"/></g><g transform="translate(43.947 34.257)"><path class="a" d="M41.655,31.51V30.174H36.5v6.463h5.153V35.3l-3.617-.008V34.005h3.528v-1.32H38.038V31.51Z" transform="translate(-36.502 -30.174)"/></g><g transform="translate(18.533 34.259)"><path class="a" d="M30.4,30.176H25.47l-1.965,2.117-1.9-2.117h-6.21v6.462H21.51L23.487,34.5l1.9,2.139h3V34.471h1.926c1.35,0,2.688-.371,2.688-2.166S31.63,30.174,30.4,30.176Zm-9.675,5.117H16.934V34.007h3.389v-1.32H16.934V31.512H20.8l1.689,1.882Zm6.123.757-2.372-2.634,2.372-2.548Zm3.532-2.894H28.391V31.51H30.4c.559,0,.944.228.944.793S30.98,33.158,30.385,33.156Z" transform="translate(-15.393 -30.176)"/></g><g transform="translate(36.875 34.257)"><path class="a" d="M35.748,33.633a1.816,1.816,0,0,0,1.1-1.72,1.516,1.516,0,0,0-.792-1.435,3.837,3.837,0,0,0-1.86-.3H30.628v6.462h1.551v-2.36h1.649a1.5,1.5,0,0,1,1.133.287c.287.3.249.876.249,1.265v.808h1.55V35.355a1.855,1.855,0,0,0-.256-1.179A1.674,1.674,0,0,0,35.748,33.633Zm-.931-.8a1.483,1.483,0,0,1-.765.134H32.176V31.512h1.9a1.53,1.53,0,0,1,.737.117.616.616,0,0,1,.319.582A.7.7,0,0,1,34.818,32.83Z" transform="translate(-30.628 -30.174)"/></g><g transform="translate(49.847 34.256)"><path class="a" d="M46.557,33.225a2.523,2.523,0,0,0-1.769-.515l-.83-.024a1.79,1.79,0,0,1-.6-.073.542.542,0,0,1-.1-.948,1.05,1.05,0,0,1,.619-.117H46.7V30.173H43.61c-1.621,0-2.208.985-2.208,1.924,0,2.043,1.81,1.952,3.252,2a.809.809,0,0,1,.55.143.548.548,0,0,1,.188.427.571.571,0,0,1-.181.421.9.9,0,0,1-.63.16h-3v1.386h3.008c1.557,0,2.427-.649,2.427-2.04A1.8,1.8,0,0,0,46.557,33.225Z" transform="translate(-41.402 -30.173)"/></g><g transform="translate(6.232 23.156)"><path class="a" d="M19.26,20.937,17.4,25.321l-2.021-4.384H12.862v6.119l-2.628-6.119H7.942L5.176,27.4H6.853l.6-1.441h3.215l.594,1.441H14.4V22.334L16.646,27.4h1.359l2.239-5.06.006,5.06h1.583V20.937H19.26ZM8,24.612l1.05-2.575,1.056,2.575Z" transform="translate(-5.176 -20.937)"/></g><g transform="translate(24.038 23.156)"><path class="a" d="M25.124,22.283V20.937H19.966V27.4h5.158V26.063H21.509V24.772h3.529V23.448H21.509V22.283Z" transform="translate(-19.966 -20.937)"/></g><g transform="translate(56.155 34.256)"><path class="a" d="M51.8,33.225a2.516,2.516,0,0,0-1.767-.515l-.831-.024a1.8,1.8,0,0,1-.6-.073.543.543,0,0,1-.1-.948,1.058,1.058,0,0,1,.62-.117h2.833V30.173h-3.1c-1.618,0-2.208.985-2.208,1.924,0,2.043,1.811,1.952,3.254,2a.815.815,0,0,1,.55.143.555.555,0,0,1,.187.427.58.58,0,0,1-.179.421.9.9,0,0,1-.631.16H46.829v1.386h3.008c1.557,0,2.425-.649,2.425-2.04A1.79,1.79,0,0,0,51.8,33.225Z" transform="translate(-46.642 -30.173)"/></g></g></svg>