<svg xmlns="http://www.w3.org/2000/svg" xmlns:xlink="http://www.w3.org/1999/xlink" width="107.541" height="104.59" viewBox="0 0 107.541 104.59"><defs><style>.a{fill:#4c4a46;}.b,.d,.e{stroke:#343434;}.b{fill:url(#c);}.c{opacity:0.18;}.d{fill:#fff;}.e{opacity:0.43;fill:url(#d);}.f{fill:#010109;stroke:#191919;}.g{filter:url(#g);}.h{filter:url(#e);}.i{filter:url(#a);}</style><filter id="a" x="25.541" y="19.59" width="82" height="85" filterUnits="userSpaceOnUse"><feOffset dx="6" dy="12" input="SourceAlpha"/><feGaussianBlur stdDeviation="3" result="b"/><feFlood flood-opacity="0.635"/><feComposite operator="in" in2="b"/><feComposite in="SourceGraphic"/></filter><linearGradient id="c" x1="0.474" y1="0.085" x2="0.53" y2="0.942" gradientUnits="objectBoundingBox"><stop offset="0" stop-color="#171717"/><stop offset="0.365" stop-color="#1b1b1b"/><stop offset="0.6" stop-color="#272324"/><stop offset="0.683" stop-color="#1e1b1b"/><stop offset="1"/></linearGradient><linearGradient id="d" x1="0.525" y1="0.962" x2="0.478" y2="0.046" gradientUnits="objectBoundingBox"><stop offset="0" stop-color="#575757"/><stop offset="0.365" stop-color="#666"/><stop offset="0.465" stop-color="#494748"/><stop offset="0.6" stop-color="#272324"/><stop offset="0.683" stop-color="#1e1b1b"/><stop offset="1"/></linearGradient><filter id="e" x="19.688" y="12.457" width="74.147" height="70.336" filterUnits="userSpaceOnUse"><feOffset dx="-1" dy="1" input="SourceAlpha"/><feGaussianBlur stdDeviation="0.5" result="f"/><feFlood/><feComposite operator="in" in2="f"/><feComposite in="SourceGraphic"/></filter><filter id="g" x="31.078" y="25.64" width="49.549" height="47.738" filterUnits="userSpaceOnUse"><feOffset dy="3" input="SourceAlpha"/><feGaussianBlur stdDeviation="3" result="h"/><feFlood flood-opacity="0.161"/><feComposite operator="in" in2="h"/><feComposite in="SourceGraphic"/></filter></defs><g transform="translate(0.03 0.145)"><g class="i" transform="matrix(1, 0, 0, 1, -0.03, -0.15)"><circle class="a" cx="32" cy="32" r="32" transform="translate(28.54 19.59)"/></g><path class="b" d="M711.136,311.518s4.6,1.38,3.22-4.6-8.74-15.639-8.74-15.639,13.8,20.238,22.078,8.279c0,0,7.82,1.38,11.5-4.14s6.439,4.14,6.439,4.14,15.179-9.2,14.259-15.178l-4.139,13.637s3.68-.3,1.84,5.68a13.453,13.453,0,0,1,7.359,2.76l5.059-2.3s3.68,6.255,0,7.5c0,0,11.959-.138,17.019-6.117,0,0-11.959,8.279-11.039,12.879,0,0-1.646,5.519,2.167,6.439s1.974,4.14-4.466,14.259c0,0-.92,4.139,1.84,6.439s4.14,5.52,13.8,9.66l-19.779-4.14s-.46,10.119-4.6,10.119-5.979-1.84-9.2,4.6-8.28,0-8.28,0l1.84,20.238s-2.76-16.1-6.439-16.1-2.76-5.519-4.6-5.059-5.059,3.22-7.82-.46-4.6,2.3-11.959-7.819c0,0-.46-2.3-15.639,10.119,0,0,9.659-9.2,7.359-12.419,0,0,4.14-4.6-.92-5.98,0,0,3.68-6.9-1.38-13.109s-1.38-9.429-8.279-9.429-14.819.46-14.819.46,23.1-1.38,24.018-4.6l-2.76-4.6S712.976,317.5,711.136,311.518Z" transform="translate(-684.818 -284.381)"/><g class="c"><path class="d" d="M711.136,311.518s4.6,1.38,3.22-4.6-8.74-15.639-8.74-15.639,13.8,20.238,22.078,8.279c0,0,7.82,1.38,11.5-4.14s6.439,4.14,6.439,4.14,15.179-9.2,14.259-15.178l-4.139,13.637s3.68-.3,1.84,5.68a13.453,13.453,0,0,1,7.359,2.76l5.059-2.3s3.68,6.255,0,7.5c0,0,11.959-.138,17.019-6.117,0,0-11.959,8.279-11.039,12.879,0,0-1.646,5.519,2.167,6.439s1.974,4.14-4.466,14.259c0,0-.92,4.139,1.84,6.439s4.14,5.52,13.8,9.66l-19.779-4.14s-.46,10.119-4.6,10.119-5.979-1.84-9.2,4.6-8.28,0-8.28,0l1.84,20.238s-2.76-16.1-6.439-16.1-2.76-5.519-4.6-5.059-5.059,3.22-7.82-.46-4.6,2.3-11.959-7.819c0,0-.46-2.3-15.639,10.119,0,0,9.659-9.2,7.359-12.419,0,0,4.14-4.6-.92-5.98,0,0,3.68-6.9-1.38-13.109s-1.38-9.429-8.279-9.429-14.819.46-14.819.46,23.1-1.38,24.018-4.6l-2.76-4.6S712.976,317.5,711.136,311.518Z" transform="translate(-684.818 -284.381)"/></g><g class="h" transform="matrix(1, 0, 0, 1, -0.03, -0.15)"><path class="e" d="M732.954,335.593s14.468-29.671,42.07-12.537,1.809,44.3-8.638,45.132S730.446,371.113,732.954,335.593Z" transform="translate(-702.32 -296.43)"/></g><g class="g" transform="matrix(1, 0, 0, 1, -0.03, -0.15)"><path class="f" d="M750.41,341.812a11.63,11.63,0,0,1,10.346-6.165c7.561-.1,8.755-3.343,13.53,3.082s5.968,7.679,4.377,11.022-.4,7.522-2.785,8.358-3.183,5.014-5.969,5.014-4.377-2.925-7.163,0c0,0-5.173-1.672-6.765,0,0,0-2.786-6.686-5.571-6.686s0-7.506,0-7.506S746.676,345.969,750.41,341.812Z" transform="translate(-708.16 -302.65)"/></g></g></svg>