<svg xmlns="http://www.w3.org/2000/svg" width="68" height="44" viewBox="0 0 68 44"><defs><style>.a{fill:#9b9b9b;}</style></defs><g transform="translate(0 -9.939)"><g transform="translate(14.671 29.02)"><path class="a" d="M15.63,25.812a6.407,6.407,0,0,0-2.247.409l-.269,1.6a5.853,5.853,0,0,1,2.022-.327c.691,0,1.2.077,1.2.638a1.2,1.2,0,0,1-.061.468s-.545-.044-.8-.044c-1.6,0-3.29.683-3.29,2.749a1.759,1.759,0,0,0,1.791,2,2.411,2.411,0,0,0,1.9-.851l-.061.709H17.45l.728-5.109A2.2,2.2,0,0,0,15.63,25.812Zm-.916,5.936a.676.676,0,0,1-.726-.7c0-.507.275-1.118,1.635-1.118a1.164,1.164,0,0,1,.4.043C16.063,30.285,15.832,31.748,14.714,31.748Z" transform="translate(-12.184 -25.812)"/></g><g transform="translate(20.329 29.033)"><path class="a" d="M20.581,27.523c.261,0,1.267.083,1.267.083l.234-1.637a8.654,8.654,0,0,0-1.712-.145c-1.373,0-2.765.548-2.765,2.422,0,2.125,2.322,1.909,2.322,2.806,0,.6-.649.646-1.149.646a5.936,5.936,0,0,1-1.648-.284l-.248,1.624a5.991,5.991,0,0,0,2.082.226c.417,0,2.806.108,2.806-2.357,0-2.306-2.211-1.85-2.211-2.777C19.56,27.667,19.919,27.523,20.581,27.523Z" transform="translate(-16.883 -25.823)"/></g><g transform="translate(25.47 28.115)"><g transform="translate(0 0)"><path class="a" d="M23.621,27.886H24.6l.237-1.745h-.926l.189-1.082H22.248c-.041.04-1.1,6.1-1.1,6.837a1.377,1.377,0,0,0,1.479,1.572,4.781,4.781,0,0,0,1.391-.244l.232-1.577c-.127,0-.314.055-.478.055-.646,0-.716-.345-.676-.6Z" transform="translate(-21.153 -25.059)"/></g></g><g transform="translate(31.171 20.815)"><g transform="translate(0 0)"><path class="a" d="M30.438,18.987H27.128c-.445.6-.863,1.241-1.242,1.866h5.906A17.643,17.643,0,0,0,30.438,18.987Z" transform="translate(-25.886 -18.987)"/></g></g><g transform="translate(61.171 41.313)"><path class="a" d="M51.234,36.527a.957.957,0,0,0-.09-.12.129.129,0,0,0-.052-.031.189.189,0,0,0,.126-.055.166.166,0,0,0,.047-.115.162.162,0,0,0-.028-.089.146.146,0,0,0-.077-.059.457.457,0,0,0-.153-.018H50.8v.607h.1v-.257h.056a.115.115,0,0,1,.077.022.546.546,0,0,1,.1.141l.053.1h.121Zm-.219-.219H50.9v-.183h.113a.289.289,0,0,1,.1.011.1.1,0,0,1,.042.031.083.083,0,0,1,.014.047.085.085,0,0,1-.03.069A.2.2,0,0,1,51.015,36.308Z" transform="translate(-50.799 -36.039)"/></g><g transform="translate(29.199 24.512)"><path class="a" d="M33.127,22.062H25.185c-.507.96-.844,1.687-.939,1.867H33.88A17.6,17.6,0,0,0,33.127,22.062Z" transform="translate(-24.246 -22.062)"/></g><g transform="translate(6.259 27.542)"><g transform="translate(0 0)"><path class="a" d="M11.321,24.583,9.492,30,9.4,24.583H6.69L5.207,33.417H7l1.129-6.66.166,6.66H9.569l2.384-6.66L10.9,33.417h1.9l1.463-8.834Z" transform="translate(-5.207 -24.583)"/></g></g><g transform="translate(44.794 29.02)"><path class="a" d="M40.649,25.812a6.4,6.4,0,0,0-2.248.409l-.27,1.6a5.862,5.862,0,0,1,2.022-.327c.691,0,1.2.077,1.2.638a1.161,1.161,0,0,1-.064.468s-.543-.044-.8-.044c-1.6,0-3.288.683-3.288,2.749a1.76,1.76,0,0,0,1.791,2,2.417,2.417,0,0,0,1.9-.851l-.061.709h1.632l.728-5.109A2.191,2.191,0,0,0,40.649,25.812Zm-.914,5.936a.675.675,0,0,1-.726-.7c0-.507.275-1.118,1.635-1.118a1.178,1.178,0,0,1,.4.043C41.083,30.285,40.851,31.748,39.735,31.748Z" transform="translate(-37.2 -25.812)"/></g><g transform="translate(60.614 35.28)"><path class="a" d="M51.387,31.3a.507.507,0,0,0-.212-.209.56.56,0,0,0-.276-.073.606.606,0,0,0-.276.073.511.511,0,0,0-.21.209.568.568,0,0,0-.076.281.556.556,0,0,0,.076.279.538.538,0,0,0,.208.21.574.574,0,0,0,.279.075.565.565,0,0,0,.28-.075.57.57,0,0,0,.282-.489A.554.554,0,0,0,51.387,31.3Zm-.078.513a.453.453,0,0,1-.174.176.464.464,0,0,1-.465,0,.448.448,0,0,1-.176-.176.461.461,0,0,1,0-.468.437.437,0,0,1,.176-.174.47.47,0,0,1,.231-.06.464.464,0,0,1,.228.06.43.43,0,0,1,.176.174.479.479,0,0,1,.065.234A.468.468,0,0,1,51.308,31.816Z" transform="translate(-50.336 -31.02)"/></g><g transform="translate(60.932 35.547)"><path class="a" d="M51.036,31.73a.753.753,0,0,0-.089-.12.139.139,0,0,0-.052-.031.186.186,0,0,0,.125-.055.167.167,0,0,0,.048-.115.157.157,0,0,0-.029-.089.17.17,0,0,0-.075-.059.465.465,0,0,0-.154-.018H50.6v.606h.1v-.257h.056a.13.13,0,0,1,.079.02.613.613,0,0,1,.1.143l.052.095h.121Zm-.216-.222H50.7v-.184h.111a.357.357,0,0,1,.1.01.1.1,0,0,1,.04.032.078.078,0,0,1,.016.049.089.089,0,0,1-.029.066A.174.174,0,0,1,50.82,31.508Z" transform="translate(-50.6 -31.242)"/></g><g transform="translate(50.387 29.107)"><path class="a" d="M46.014,25.885c-.831,0-1.447,1.134-1.447,1.134l.166-1.042H43l-1.158,7.191h1.9c.542-3.073.641-5.564,1.928-5.109a7.133,7.133,0,0,1,.692-2.149A2.118,2.118,0,0,0,46.014,25.885Z" transform="translate(-41.846 -25.885)"/></g><g transform="translate(54.052 27.548)"><g transform="translate(0 0)"><path class="a" d="M50.185,24.592l-.4,2.482a2.448,2.448,0,0,0-1.791-.965c-1.7,0-3.117,2.051-3.117,4.4,0,1.521.756,3.01,2.3,3.01a2.318,2.318,0,0,0,1.727-.775l-.081.662h1.8l1.418-8.822ZM47.833,31.72c-.668,0-.981-.56-.981-1.44,0-1.439.646-2.387,1.462-2.387.666,0,1.009.459,1.009,1.539C49.322,30.411,48.838,31.72,47.833,31.72Z" transform="translate(-44.877 -24.588)"/></g></g><g transform="translate(0 9.939)"><path class="a" d="M66.249,9.939H1.751A1.748,1.748,0,0,0,0,11.687v40.5a1.748,1.748,0,0,0,1.751,1.748h64.5A1.748,1.748,0,0,0,68,52.191v-40.5A1.748,1.748,0,0,0,66.249,9.939Zm-4.355,31.95a.523.523,0,0,1-.208.21.565.565,0,0,1-.561,0,.542.542,0,0,1-.209-.21.563.563,0,0,1-.075-.279.571.571,0,0,1,.076-.281.519.519,0,0,1,.211-.209.6.6,0,0,1,.278-.072.586.586,0,0,1,.276.072.512.512,0,0,1,.211.209.573.573,0,0,1,.075.281A.545.545,0,0,1,61.895,41.889Zm1.262-9.95A17.455,17.455,0,0,1,34,44.862,17.435,17.435,0,1,1,22.185,14.514H22.3a17.4,17.4,0,0,1,11.7,4.5A17.457,17.457,0,0,1,63.159,31.931S63.156,31.935,63.156,31.94Z" transform="translate(0 -9.939)"/></g><g transform="translate(32.213 42.957)"><path class="a" d="M26.753,37.406a17.341,17.341,0,0,0,1.781,1.9c.014-.013.03-.025.044-.037a0,0,0,0,1,0,0h0a17.416,17.416,0,0,0,1.769-1.866Z" transform="translate(-26.753 -37.406)"/></g><g transform="translate(28.934 28.988)"><path class="a" d="M29.676,30.19A13.318,13.318,0,0,0,29.92,28.5a2.488,2.488,0,0,0-2.645-2.713c-1.866,0-3.247,2.011-3.247,4.283a2.912,2.912,0,0,0,3.2,3.244,4.7,4.7,0,0,0,1.959-.305l.327-1.789a5.768,5.768,0,0,1-1.97.457c-1.992,0-1.643-1.486-1.643-1.486h3.77Zm-2.395-2.74c1.047,0,.853,1.177.853,1.271H26.076C26.076,28.6,26.271,27.451,27.282,27.451Z" transform="translate(-24.029 -25.786)"/></g><g transform="translate(38.992 27.345)"><g transform="translate(0 0)"><path class="a" d="M36.689,26.309a3.3,3.3,0,0,1,1.7.53l.3-1.965a6.652,6.652,0,0,0-2.089-.454c-2.141,0-4.224,1.858-4.224,5.348,0,2.314,1.124,3.842,3.338,3.842a8.6,8.6,0,0,0,1.623-.254l.332-2.024a4.456,4.456,0,0,1-1.534.456A1.837,1.837,0,0,1,34.295,29.7C34.295,27.512,35.427,26.309,36.689,26.309Z" transform="translate(-32.381 -24.419)"/></g></g><g transform="translate(29.886 39.296)"><path class="a" d="M24.818,34.361a17.229,17.229,0,0,0,1.029,1.866h6.182a17.448,17.448,0,0,0,1.015-1.866Z" transform="translate(-24.818 -34.361)"/></g><g transform="translate(34.785 29.11)"><path class="a" d="M33.053,25.887c-.831,0-1.446,1.134-1.446,1.134l.167-1.042H30.047l-1.158,7.191h1.9c.54-3.071.641-5.564,1.928-5.109a7.135,7.135,0,0,1,.69-2.152A1.88,1.88,0,0,0,33.053,25.887Z" transform="translate(-28.889 -25.887)"/></g></g></svg>