<svg xmlns="http://www.w3.org/2000/svg" width="68" height="44" viewBox="0 0 68 44"><defs><style>.a{fill:#9b9b9b;}</style></defs><g transform="translate(0 -9.939)"><g transform="translate(11.798 27.603)"><path class="a" d="M12.595,24.907a2.258,2.258,0,0,0-1.226-.272l-.461,0a.712.712,0,0,0-.671.535L9.812,27a.421.421,0,0,0,.429.538h.344a2.953,2.953,0,0,0,1.782-.468A1.517,1.517,0,0,0,13,25.747.931.931,0,0,0,12.595,24.907Z" transform="translate(-9.799 -24.635)"/></g><g transform="translate(19.344 32.086)"><path class="a" d="M18.841,28.364c-.083,0-.72.075-1.043.114a5.324,5.324,0,0,0-.928.209l-.6.407a1.061,1.061,0,0,0-.206.687l.272.527a1.682,1.682,0,0,0,.8.154,1.972,1.972,0,0,0,.737-.161l.554-.285.219-.291c.087-.34.266-1.094.287-1.188Z" transform="translate(-16.067 -28.364)"/></g><g transform="translate(0 9.939)"><path class="a" d="M66.249,9.939H1.751A1.748,1.748,0,0,0,0,11.687v40.5a1.749,1.749,0,0,0,1.751,1.749h64.5A1.748,1.748,0,0,0,68,52.191v-40.5A1.748,1.748,0,0,0,66.249,9.939ZM16.234,31.283a6.68,6.68,0,0,1-4.016,1.058h-.4a.72.72,0,0,0-.675.534l-.484,2.089a.724.724,0,0,1-.677.536H8.571a.417.417,0,0,1-.425-.536l1.981-8.611a.738.738,0,0,1,.678-.537h2.942a9.965,9.965,0,0,1,1.663.131,3.632,3.632,0,0,1,1.226.45,2.083,2.083,0,0,1,.769.828,2.6,2.6,0,0,1,.271,1.268A3.29,3.29,0,0,1,16.234,31.283Zm8.743-1.1-.053.362L23.9,34.984a.728.728,0,0,1-.606.527l-.019.007h-1.31l0,0a.418.418,0,0,1-.377-.527v0l0-.008.053-.226-.007-.008-.531.35-.578.322-.681.233a3.936,3.936,0,0,1-.885.081,2.155,2.155,0,0,1-1.484-.5,1.734,1.734,0,0,1-.573-1.334,2.6,2.6,0,0,1,.4-1.471,2.763,2.763,0,0,1,1.212-.954,6.479,6.479,0,0,1,1.787-.49c.7-.1,1.279-.174,2.079-.225l.2-.125.025-.2a.648.648,0,0,0-.425-.64A3.491,3.491,0,0,0,20.9,29.6a6.075,6.075,0,0,0-1.321.177,7.623,7.623,0,0,0-.843.249c-.108.037-.37.055-.272-.4l.172-.708a.826.826,0,0,1,.62-.652c.259-.058.3-.069.722-.133a11.2,11.2,0,0,1,1.7-.132,5.354,5.354,0,0,1,2.519.448,1.487,1.487,0,0,1,.8,1.391Zm2.265,8.744-1.459,0c-.3,0-.4-.24-.218-.536l1.249-2.173s.1-.124.011-.833c-.193-1.281-1.151-6.729-1.151-6.729a.415.415,0,0,1,.421-.536l1.263,0a.775.775,0,0,1,.767.552l.628,3.778.234,0c.2-.347,2.214-3.8,2.214-3.8a1.225,1.225,0,0,1,.886-.537s1.357,0,1.69,0c.5-.007-.039.8-.039.8l-5.615,9.481A1.18,1.18,0,0,1,27.242,38.929Zm14.588-7.608A6.728,6.728,0,0,1,37.8,32.376h-.4a.726.726,0,0,0-.677.533L36.249,35a.728.728,0,0,1-.677.529l-1.412,0A.416.416,0,0,1,33.735,35l1.982-8.615a.736.736,0,0,1,.674-.535l2.946,0a9.831,9.831,0,0,1,1.655.13,3.482,3.482,0,0,1,1.227.448,2.159,2.159,0,0,1,.775.832,2.7,2.7,0,0,1,.271,1.267A3.337,3.337,0,0,1,41.831,31.321Zm8.738-1.13-.052.364-1.031,4.434a.726.726,0,0,1-.6.529l-.019.007h-1.31l0-.007a.41.41,0,0,1-.376-.527l0,0,.006,0,.047-.226-.008-.011-.527.355-.582.321-.68.23a4.057,4.057,0,0,1-.883.083,2.167,2.167,0,0,1-1.483-.508,1.723,1.723,0,0,1-.577-1.336,2.585,2.585,0,0,1,.4-1.468,2.793,2.793,0,0,1,1.211-.956,6.579,6.579,0,0,1,1.79-.49c.7-.1,1.274-.174,2.08-.224l.2-.127.022-.2a.644.644,0,0,0-.426-.638,3.456,3.456,0,0,0-1.279-.182,6.3,6.3,0,0,0-1.323.177,8.059,8.059,0,0,0-.837.249c-.118.035-.372.055-.276-.4l.172-.707a.818.818,0,0,1,.619-.652c.261-.056.3-.07.725-.131a10.734,10.734,0,0,1,1.7-.136,5.37,5.37,0,0,1,2.517.451A1.483,1.483,0,0,1,50.6,29.85Zm4.515-3.735L53.2,34.992l-.066.1a.717.717,0,0,1-.609.435h-1.31l-.024-.03a.4.4,0,0,1-.353-.5l0-.006.057-.246,1.765-8.008.063-.279.071-.109a.717.717,0,0,1,.607-.427h1.261a.416.416,0,0,1,.426.533Zm2.5-.923h-.472v.626l0,.168.033.113.075.072.144.023.118-.017.088-.026h.011V26.7l-.141.028-.134.011-.32-.114-.11-.361v-.728h-.159v-.195h.159v-.391h.232v.391h.472Zm2.282.287v.886H59.64v-.781l-.014-.167-.03-.132-.079-.078-.153-.028-.191.049-.2.124,0,.067,0,.072v.876h-.229v-.781l-.01-.169-.033-.131-.077-.078-.155-.028-.189.047-.191.119v1.022h-.226V25.339H58.1v.153l.219-.139.226-.05.238.056.147.163.253-.169.247-.05.333.136.108.382h0Z" transform="translate(0 -9.939)"/></g><g transform="translate(44.942 32.093)"><path class="a" d="M40.1,28.37c-.083,0-.718.073-1.035.114a5.1,5.1,0,0,0-.928.209,1.431,1.431,0,0,0-.6.407,1.09,1.09,0,0,0-.2.689l.276.526a1.611,1.611,0,0,0,.8.155,1.98,1.98,0,0,0,.732-.16l.55-.285.226-.291c.084-.343.267-1.1.282-1.19Z" transform="translate(-37.328 -28.37)"/></g><g transform="translate(37.383 27.634)"><path class="a" d="M33.846,24.934a2.261,2.261,0,0,0-1.223-.273l-.459,0a.721.721,0,0,0-.674.536l-.426,1.829a.422.422,0,0,0,.432.537h.35a3,3,0,0,0,1.779-.462,1.55,1.55,0,0,0,.633-1.329A.954.954,0,0,0,33.846,24.934Z" transform="translate(-31.05 -24.661)"/></g></g></svg>