<svg xmlns="http://www.w3.org/2000/svg" width="68" height="44" viewBox="0 0 68 44"><defs><style>.a{fill:#9b9b9b;}</style></defs><g transform="translate(0 -9.939)"><g transform="translate(0 9.939)"><path class="a" d="M66.249,9.939H1.751A1.748,1.748,0,0,0,0,11.687v40.5a1.748,1.748,0,0,0,1.751,1.748h64.5A1.748,1.748,0,0,0,68,52.191v-40.5A1.748,1.748,0,0,0,66.249,9.939ZM5.265,23.235h7.258a1.883,1.883,0,0,1,2.04,1.393l1.578,7.579C14.59,28.243,10.853,24.945,5.2,23.579Zm8.782,17.286-4.192-14.3a18.364,18.364,0,0,1,6.485,7.108l.489,1.766,4.585-11.7h4.96L19,40.518Zm15.972.012H25.337l2.927-17.151h4.683Zm8.146.257a14.839,14.839,0,0,1-5.216-.916l.659-3.838.6.273a9.823,9.823,0,0,0,4.408.9c1.345,0,2.786-.525,2.8-1.675.008-.751-.6-1.287-2.426-2.129-1.777-.82-4.13-2.2-4.1-4.658.025-3.333,3.286-5.659,7.912-5.659a12.1,12.1,0,0,1,4.193.72l-.632,3.718-.423-.2a8.649,8.649,0,0,0-3.5-.656c-1.832,0-2.682.762-2.682,1.475-.01.8.992,1.332,2.629,2.128,2.7,1.224,3.949,2.708,3.932,4.659C46.282,38.492,43.088,40.791,38.165,40.791Zm20.287-.25s-.427-1.971-.569-2.57l-6-.007c-.182.463-.984,2.577-.984,2.577H45.987l6.95-15.717A2.332,2.332,0,0,1,55.39,23.4h3.617L62.8,40.539Z" transform="translate(0 -9.939)"/></g><g transform="translate(53.237 28.026)"><path class="a" d="M47.012,26.464,46.7,24.985c-.238.646-.648,1.683-.621,1.637,0,0-1.477,3.807-1.862,4.794H48.1C47.908,30.557,47.012,26.464,47.012,26.464Z" transform="translate(-44.214 -24.985)"/></g></g></svg>